<svg xmlns="http://www.w3.org/2000/svg" width="220.424" height="38" viewBox="0 0 220.424 38">
  <g id="logo_wide" transform="translate(-2.5 -8.2)">
    <g id="Group_111" data-name="Group 111" transform="translate(46.494 20.838)">
      <path id="Path_25" data-name="Path 25" d="M45.132,23.124h0a4.062,4.062,0,0,1,1.131-.792,3.131,3.131,0,0,1,1.47-.339,5.144,5.144,0,0,1,2.149.679,1.5,1.5,0,0,0,.9.339,1.434,1.434,0,0,0,.679-.113c.226-.113.339-.226.565-.339l.679-.679-.339-.339a5.664,5.664,0,0,0-.9-.792,9.945,9.945,0,0,0-1.131-.679,4.052,4.052,0,0,0-1.244-.452,5.614,5.614,0,0,0-3.054.113,3.505,3.505,0,0,0-1.47.679,3.535,3.535,0,0,0-1.244,1.018A12.02,12.02,0,0,0,42.3,22.672c-.226.452-.452,1.018-.679,1.47a8.73,8.73,0,0,0-.226,1.7,6.086,6.086,0,0,0,.452,2.488,6.238,6.238,0,0,0,3.393,3.393,6.086,6.086,0,0,0,2.488.452,4.639,4.639,0,0,0,1.244-.113,4.81,4.81,0,0,0,1.244-.226,4.727,4.727,0,0,0,1.131-.452,6.215,6.215,0,0,0,1.018-.792l.113-.113V25.16H48.073v.9a1.434,1.434,0,0,0,.113.679,2.472,2.472,0,0,0,.339.565.962.962,0,0,0,.565.339,1.434,1.434,0,0,0,.679.113h.113v1.244a5.514,5.514,0,0,1-.792.339,4.241,4.241,0,0,1-1.244.113,3.483,3.483,0,0,1-1.47-.339,4.67,4.67,0,0,1-1.244-.792A4.062,4.062,0,0,1,44.34,27.2,3.131,3.131,0,0,1,44,25.725a3.483,3.483,0,0,1,.339-1.47A4.062,4.062,0,0,1,45.132,23.124Z" transform="translate(-41.4 -19.364)" fill="#172816"/>
      <path id="Path_26" data-name="Path 26" d="M59.7,26.5h0a5.225,5.225,0,0,0,.792-.792,4.584,4.584,0,0,0,.565-1.018,4.066,4.066,0,0,0,.226-1.244,3.131,3.131,0,0,0-.339-1.47,4.67,4.67,0,0,0-.792-1.244,4.67,4.67,0,0,0-1.244-.792,3.482,3.482,0,0,0-1.47-.339H52.8V31.927h2.6v-4.75h1.018l2.827,3.732a1.52,1.52,0,0,0,.792.679,3.3,3.3,0,0,0,1.018.226H63.2l-3.845-5.2A.416.416,0,0,0,59.7,26.5Zm-1.018-3.167a.68.68,0,0,1-.113.452c-.113.113-.113.226-.226.339s-.226.226-.339.226a.623.623,0,0,1-.565.226H55.514V22.2h1.923a.68.68,0,0,1,.452.113c.113.113.226.113.339.226s.226.226.226.339A.452.452,0,0,1,58.681,23.332Z" transform="translate(-39.907 -19.346)" fill="#172816"/>
      <path id="Path_27" data-name="Path 27" d="M62.1,31.941h8.03V29.226H64.7V26.964h4.411v-2.6H64.7V22.214H70.13V19.5H62.1Z" transform="translate(-38.689 -19.359)" fill="#172816"/>
      <path id="Path_28" data-name="Path 28" d="M70.6,31.941h8.03V29.226H73.2V26.964h4.411v-2.6H73.2V22.214H78.63V19.5H70.6Z" transform="translate(-37.576 -19.359)" fill="#172816"/>
      <path id="Path_29" data-name="Path 29" d="M87.03,26.738l-4.75-6.56a3,3,0,0,0-.679-.565,2.2,2.2,0,0,0-.9-.113H79V31.827h2.6V23.8l5.881,8.03h2.036V19.5h-2.6v7.238Z" transform="translate(-36.476 -19.359)" fill="#172816"/>
      <path id="Path_30" data-name="Path 30" d="M92.9,19.5H90.3V31.941h7.464V29.226H92.9Z" transform="translate(-34.996 -19.359)" fill="#172816"/>
      <rect id="Rectangle_194" data-name="Rectangle 194" width="2.601" height="12.327" transform="translate(64.012 0.141)" fill="#172816"/>
      <path id="Path_31" data-name="Path 31" d="M105.632,23.124h0a4.062,4.062,0,0,1,1.131-.792,3.131,3.131,0,0,1,1.47-.339,5.144,5.144,0,0,1,2.149.679,1.5,1.5,0,0,0,.9.339,1.434,1.434,0,0,0,.679-.113c.226-.113.339-.226.565-.339l.679-.679-.339-.339a5.664,5.664,0,0,0-.9-.792,9.944,9.944,0,0,0-1.131-.679,4.051,4.051,0,0,0-1.244-.452,5.614,5.614,0,0,0-3.054.113,3.505,3.505,0,0,0-1.47.679,3.535,3.535,0,0,0-1.244,1.018,12.017,12.017,0,0,0-1.018,1.244c-.226.452-.452,1.018-.679,1.47a8.731,8.731,0,0,0-.226,1.7,6.086,6.086,0,0,0,.452,2.488,6.238,6.238,0,0,0,3.393,3.393,6.086,6.086,0,0,0,2.488.452,4.639,4.639,0,0,0,1.244-.113,4.81,4.81,0,0,0,1.244-.226,4.726,4.726,0,0,0,1.131-.452,6.215,6.215,0,0,0,1.018-.792l.113-.113V25.16h-4.411v.9a1.434,1.434,0,0,0,.113.679,2.472,2.472,0,0,0,.339.565.962.962,0,0,0,.565.339,1.434,1.434,0,0,0,.679.113h.113v1.244a5.512,5.512,0,0,1-.792.339,4.241,4.241,0,0,1-1.244.113,3.482,3.482,0,0,1-1.47-.339,4.67,4.67,0,0,1-1.244-.792,4.062,4.062,0,0,1-.792-1.131,3.131,3.131,0,0,1-.339-1.47,3.483,3.483,0,0,1,.339-1.47A2.586,2.586,0,0,1,105.632,23.124Z" transform="translate(-33.477 -19.364)" fill="#172816"/>
      <path id="Path_32" data-name="Path 32" d="M120.777,24.363H115.8V19.5h-2.6V31.941h2.6V26.964h4.976v4.976h2.714V19.5h-2.714Z" transform="translate(-31.997 -19.359)" fill="#172816"/>
      <path id="Path_33" data-name="Path 33" d="M123.1,22.214h3.506v9.726h2.6V22.214h3.506V19.5H123.1Z" transform="translate(-30.701 -19.359)" fill="#172816"/>
      <path id="Path_34" data-name="Path 34" d="M147.81,29.671l-.679-.679a.962.962,0,0,0-.565-.339,1.434,1.434,0,0,0-.679-.113,1.284,1.284,0,0,0-.9.339,4.017,4.017,0,0,1-1.018.452,3.346,3.346,0,0,1-1.131.226,3.483,3.483,0,0,1-1.47-.339A3.972,3.972,0,0,1,139.44,27.3a3.131,3.131,0,0,1-.339-1.47,3.482,3.482,0,0,1,.339-1.47,4.061,4.061,0,0,1,.792-1.131h0a4.062,4.062,0,0,1,1.131-.792,3.131,3.131,0,0,1,1.47-.339,5.144,5.144,0,0,1,2.149.679,1.5,1.5,0,0,0,.9.339,1.435,1.435,0,0,0,.679-.113c.226-.113.339-.226.565-.339l.679-.679-.339-.339a5.664,5.664,0,0,0-.9-.792,9.948,9.948,0,0,0-1.131-.679,4.051,4.051,0,0,0-1.244-.452,5.614,5.614,0,0,0-3.054.113,3.505,3.505,0,0,0-1.47.679,3.535,3.535,0,0,0-1.244,1.018,12.015,12.015,0,0,0-1.018,1.244c-.226.452-.452,1.018-.679,1.47a8.73,8.73,0,0,0-.226,1.7,6.086,6.086,0,0,0,.452,2.488,6.238,6.238,0,0,0,3.393,3.393,6.086,6.086,0,0,0,2.488.452,5.07,5.07,0,0,0,2.6-.565,5.991,5.991,0,0,0,1.131-.679,6.466,6.466,0,0,0,.9-.792Z" transform="translate(-28.946 -19.351)" fill="#172816"/>
      <path id="Path_35" data-name="Path 35" d="M151.129,19.513,145.7,31.841h1.7a1.824,1.824,0,0,0,1.018-.339,1.521,1.521,0,0,0,.679-.792l.679-1.47h5.089l.679,1.47a1.649,1.649,0,0,0,1.7,1.018h1.7L153.5,19.4h-2.375Zm2.488,7.238H150.9l1.357-3.167Z" transform="translate(-27.741 -19.372)" fill="#172816"/>
      <path id="Path_36" data-name="Path 36" d="M164.4,26.5h0a5.225,5.225,0,0,0,.792-.792,4.585,4.585,0,0,0,.565-1.018,4.067,4.067,0,0,0,.226-1.244,3.131,3.131,0,0,0-.339-1.47,4.669,4.669,0,0,0-.792-1.244,4.67,4.67,0,0,0-1.244-.792,3.482,3.482,0,0,0-1.47-.339H157.5V31.927h2.6v-4.75h.9l2.827,3.732a1.52,1.52,0,0,0,.792.679,3.3,3.3,0,0,0,1.018.226h2.149l-3.845-5.2C164.173,26.612,164.286,26.612,164.4,26.5Zm-1.018-3.167a.68.68,0,0,1-.113.452c-.113.113-.113.226-.226.339s-.226.226-.339.226a.68.68,0,0,1-.452.113h-1.923V22.088h1.923a.68.68,0,0,1,.452.113c.113.113.226.113.339.226s.226.226.226.339A4.9,4.9,0,0,0,163.381,23.332Z" transform="translate(-26.196 -19.346)" fill="#172816"/>
      <path id="Path_37" data-name="Path 37" d="M174.73,25.368c.113-.113.226-.226.226-.339.113-.226.226-.565.339-.792a2.49,2.49,0,0,0,.113-.9,3.482,3.482,0,0,0-.339-1.47,3.972,3.972,0,0,0-1.923-1.923,3.131,3.131,0,0,0-1.47-.339H166.7V31.927h5.429a3.131,3.131,0,0,0,1.47-.339,4.671,4.671,0,0,0,1.244-.792,4.67,4.67,0,0,0,.792-1.244,3.131,3.131,0,0,0,.339-1.47,3.612,3.612,0,0,0-.339-1.583A4.428,4.428,0,0,0,174.73,25.368Zm-5.316,1.583h2.827a.68.68,0,0,1,.452.113c.113.113.226.113.339.226s.226.226.226.339a.961.961,0,0,1,0,.9c-.113.113-.113.226-.226.339s-.226.226-.339.226a.68.68,0,0,1-.452.113h-2.827Zm3.28-3.28c-.113.113-.113.226-.226.339s-.226.226-.339.226-.226.113-.452.113H169.3V22.2h2.375a.68.68,0,0,1,.452.113c.113.113.226.113.339.226s.226.226.226.339.113.226.113.452A.558.558,0,0,1,172.694,23.671Z" transform="translate(-24.991 -19.346)" fill="#172816"/>
      <path id="Path_38" data-name="Path 38" d="M187.462,22.57h0a3.535,3.535,0,0,0-1.018-1.244,12.017,12.017,0,0,0-1.244-1.018c-.452-.226-1.018-.452-1.47-.679a5.779,5.779,0,0,0-3.393,0,3.505,3.505,0,0,0-1.47.679,3.536,3.536,0,0,0-1.244,1.018A12.017,12.017,0,0,0,176.6,22.57c-.226.452-.452,1.018-.679,1.47a8.729,8.729,0,0,0-.226,1.7,6.086,6.086,0,0,0,.452,2.488,6.238,6.238,0,0,0,3.393,3.393,6.086,6.086,0,0,0,2.488.452,8.73,8.73,0,0,0,1.7-.226,3.505,3.505,0,0,0,1.47-.679,3.535,3.535,0,0,0,1.244-1.018,12.017,12.017,0,0,0,1.018-1.244c.226-.452.452-1.018.679-1.47a8.729,8.729,0,0,0,.226-1.7,8.73,8.73,0,0,0-.226-1.7C187.914,23.475,187.688,23.022,187.462,22.57Zm-1.81,3.167a3.482,3.482,0,0,1-.339,1.47,3.972,3.972,0,0,1-1.923,1.923,3.131,3.131,0,0,1-1.47.339,3.483,3.483,0,0,1-1.47-.339,3.972,3.972,0,0,1-1.923-1.923,3.131,3.131,0,0,1-.339-1.47,3.482,3.482,0,0,1,.339-1.47,3.972,3.972,0,0,1,1.923-1.923A3.131,3.131,0,0,1,181.92,22a3.483,3.483,0,0,1,1.47.339,3.972,3.972,0,0,1,1.923,1.923A3.482,3.482,0,0,1,185.652,25.737Z" transform="translate(-23.812 -19.375)" fill="#172816"/>
      <path id="Path_39" data-name="Path 39" d="M196.13,19.5v7.238l-4.75-6.56a3,3,0,0,0-.679-.565,2.2,2.2,0,0,0-.9-.113h-1.7V31.827h2.6V23.8l5.881,8.03h2.036V19.5Z" transform="translate(-22.188 -19.359)" fill="#172816"/>
    </g>
    <path id="Path_40" data-name="Path 40" d="M34.28,8.2H8.72A6.2,6.2,0,0,0,2.5,14.42V39.98A6.2,6.2,0,0,0,8.72,46.2H34.28a6.2,6.2,0,0,0,6.22-6.22V14.42A6.2,6.2,0,0,0,34.28,8.2ZM9.286,17.474a15.634,15.634,0,0,1,21.941-2.6,16.219,16.219,0,0,1,4.3,5.316h0a2.9,2.9,0,0,1-.226,3.28,3.012,3.012,0,0,1-4.185.452,2.371,2.371,0,0,1-.9-1.244,10.8,10.8,0,0,0-2.714-3.28,9.724,9.724,0,0,0-9.5-1.47c-2.036.679-8.708,3.845-10.97,14.7A14.954,14.954,0,0,1,9.286,17.474ZM33.828,36.926a15.634,15.634,0,0,1-21.941,2.6,15.1,15.1,0,0,1-4.071-4.863l.339-1.47a21,21,0,0,1,4.637-9.839,9.328,9.328,0,0,0,2.714,11.423A9.684,9.684,0,0,0,28.4,33.986h2.94A6.577,6.577,0,0,0,36.2,31.95l.226-.226A17.274,17.274,0,0,1,33.828,36.926Zm1.583-5.655a5.74,5.74,0,0,1-4.071,1.7H18.786a5.376,5.376,0,0,1,1.7-4.071,5.74,5.74,0,0,1,4.071-1.7H37.107A5.553,5.553,0,0,1,35.411,31.272Z" fill="#3ba949"/>
  </g>
</svg>
