<svg xmlns="http://www.w3.org/2000/svg" width="50" height="50" viewBox="0 0 50 50">
  <g id="logo" transform="translate(-0.826 -0.826)">
    <path id="Path_16" data-name="Path 16" d="M42.562.826H9.091A8.289,8.289,0,0,0,.826,9.091V42.562a8.289,8.289,0,0,0,8.264,8.264H42.562a8.289,8.289,0,0,0,8.264-8.264V9.091A8.289,8.289,0,0,0,42.562.826ZM9.711,13.12A20.533,20.533,0,0,1,38.533,9.711a19.865,19.865,0,0,1,5.682,7.025h0a3.736,3.736,0,0,1-.31,4.339,3.925,3.925,0,0,1-5.475.62,4.972,4.972,0,0,1-1.24-1.653A14.142,14.142,0,0,0,33.678,15.7a12.82,12.82,0,0,0-12.5-1.86c-2.686.93-11.467,5.062-14.463,19.421A20.44,20.44,0,0,1,9.711,13.12ZM41.942,38.533A20.533,20.533,0,0,1,13.12,41.942a20.933,20.933,0,0,1-5.372-6.4l.413-1.86a28.394,28.394,0,0,1,5.992-12.913A12.77,12.77,0,0,0,34.814,35.021h3.822a8.822,8.822,0,0,0,6.4-2.686l.31-.31A20.7,20.7,0,0,1,41.942,38.533ZM44.112,31.2a7.683,7.683,0,0,1-5.372,2.273H22.314A7.329,7.329,0,0,1,24.587,28.1a7.683,7.683,0,0,1,5.372-2.273H46.384A7.683,7.683,0,0,1,44.112,31.2Z" fill="#fff"/>
  </g>
</svg>
