<svg xmlns="http://www.w3.org/2000/svg" xmlns:xlink="http://www.w3.org/1999/xlink" width="112" height="42" viewBox="0 0 112 42">
  <defs>
    <clipPath id="clip-path">
      <rect id="Rectangle_162" data-name="Rectangle 162" width="112" height="42" rx="4" transform="translate(335 949)" fill="#989caa"/>
    </clipPath>
  </defs>
  <g id="Mask_Group_10" data-name="Mask Group 10" transform="translate(-335 -949)" clip-path="url(#clip-path)">
    <g id="mastercard" transform="translate(359.549 949)">
      <path id="Path_568" data-name="Path 568" d="M86.437,21.138a20.941,20.941,0,0,1-16.5,20.453,17.759,17.759,0,0,1-5.976-2.357,20.375,20.375,0,0,1-4.377,1.936,20.832,20.832,0,0,1-14.9-20.032A21.146,21.146,0,0,1,59.5,1.022a18.862,18.862,0,0,1,4.461,1.936A22.668,22.668,0,0,1,69.94.6,21.018,21.018,0,0,1,86.437,21.138Z" transform="translate(-32.653 -0.18)" fill="#f26522"/>
      <path id="Path_569" data-name="Path 569" d="M61.587,39.238a20.375,20.375,0,0,1-4.377,1.936,23.907,23.907,0,0,1-5.976.926A21,21,0,0,1,51.15.1a17.44,17.44,0,0,1,5.976.926,18.862,18.862,0,0,1,4.461,1.936,20.9,20.9,0,0,0-10.437,18.1A21.147,21.147,0,0,0,61.587,39.238Z" transform="translate(-30.361 -0.1)" fill="#e51b24"/>
      <path id="Path_570" data-name="Path 570" d="M98.946,21.058A20.942,20.942,0,0,1,78.072,42.016a25.856,25.856,0,0,1-4.461-.421,17.759,17.759,0,0,1-5.976-2.357,20.968,20.968,0,0,0,0-36.361A22.668,22.668,0,0,1,73.611.521,25.856,25.856,0,0,1,78.072.1,20.888,20.888,0,0,1,98.946,21.058Z" transform="translate(-36.325 -0.1)" fill="#f99f1c"/>
    </g>
  </g>
</svg>
