<svg xmlns="http://www.w3.org/2000/svg" xmlns:xlink="http://www.w3.org/1999/xlink" width="133" height="50" viewBox="0 0 133 50">
  <defs>
    <clipPath id="clip-path">
      <rect id="Rectangle_161" data-name="Rectangle 161" width="133" height="50" rx="4" transform="translate(143 949)" fill="#989caa"/>
    </clipPath>
  </defs>
  <g id="Mask_Group_9" data-name="Mask Group 9" transform="translate(-143 -949)" clip-path="url(#clip-path)">
    <g id="paypal" transform="translate(140.028 948.299)">
      <path id="Path_562" data-name="Path 562" d="M14.215,7.932H19.16a13.476,13.476,0,0,1,4.532.721,6.484,6.484,0,0,1,3.5,2.678,7.188,7.188,0,0,1,.927,3.3,12.467,12.467,0,0,1-.515,4.326,11.646,11.646,0,0,1-2.06,4.429,8.581,8.581,0,0,1-2.266,2.06,12.181,12.181,0,0,1-5.665,1.751c-1.545.1-3.09,0-4.635.1a1.461,1.461,0,0,0-1.545,1.236.929.929,0,0,1-.1.515c-.309,2.163-.721,4.326-1.03,6.49a1.461,1.461,0,0,1-1.545,1.236c-1.545-.1-3.193,0-4.738,0a.919.919,0,0,1-1.03-1.133c.206-1.545.515-3.193.721-4.738.412-2.575.824-5.15,1.236-7.829.412-2.369.721-4.841,1.133-7.211.309-2.163.721-4.326,1.03-6.49A1.592,1.592,0,0,1,8.756,7.932h5.459Zm.1,13.494a10.871,10.871,0,0,0,2.575-.206,3.6,3.6,0,0,0,2.884-1.957,6.912,6.912,0,0,0,.618-2.884,2.5,2.5,0,0,0-1.442-2.163l-.927-.309a17.722,17.722,0,0,0-3.3-.206.819.819,0,0,0-.927.927c-.206,1.442-.412,2.884-.618,4.223-.1.618-.206,1.339-.309,1.957-.1.412,0,.412.412.412C13.494,21.426,13.8,21.426,14.318,21.426Z" fill="#0e3983"/>
      <path id="Path_563" data-name="Path 563" d="M87.867,8.035h5.15a12.424,12.424,0,0,1,4.738.824,6.707,6.707,0,0,1,3.3,2.781,7.771,7.771,0,0,1,.824,2.472,14.079,14.079,0,0,1-1.236,7.108,9.325,9.325,0,0,1-3.605,4.326,12.163,12.163,0,0,1-3.811,1.442,16.769,16.769,0,0,1-3.193.309H86.836a1.56,1.56,0,0,0-1.545,1.339c-.206,1.648-.515,3.193-.721,4.738-.1.824-.309,1.751-.412,2.575a.947.947,0,0,1-1.03.927H77.875a.819.819,0,0,1-.927-.927,10.149,10.149,0,0,1,.206-1.751c.309-2.266.721-4.429,1.03-6.7l.927-5.872c.309-1.751.515-3.605.824-5.356l.927-5.872c0-.309.1-.618.1-.824a1.592,1.592,0,0,1,1.648-1.442h4.12A4.225,4.225,0,0,1,87.867,8.035Zm0,13.391a12.2,12.2,0,0,0,2.678-.206,3.533,3.533,0,0,0,2.884-2.163,5.1,5.1,0,0,0,.412-1.339,4.245,4.245,0,0,0-.1-2.266,1.644,1.644,0,0,0-.721-.927,3.612,3.612,0,0,0-1.442-.618,16.64,16.64,0,0,0-3.193-.206c-.618,0-.927.206-1.03.927s-.206,1.339-.309,2.06c-.206,1.442-.412,2.884-.721,4.429,0,.206,0,.309.206.309Z" fill="#019cd9"/>
      <path id="Path_564" data-name="Path 564" d="M43.882,19.469c.1-.412.1-.618.206-.927a1.059,1.059,0,0,1,1.133-1.03h4.635a.994.994,0,0,1,1.03,1.236c-.412,2.781-.927,5.562-1.339,8.344s-.927,5.562-1.339,8.241a1.592,1.592,0,0,1-1.648,1.442c-1.339-.1-2.781,0-4.223,0-.721,0-1.03-.309-1.03-1.03,0-.309.1-.721.1-1.03-.1,0-.206.1-.309.1a9.3,9.3,0,0,1-5.356,2.266,9.718,9.718,0,0,1-4.223-.412A6.748,6.748,0,0,1,27.3,32.86a9.163,9.163,0,0,1-.824-3.4,12.734,12.734,0,0,1,1.133-5.872,12.256,12.256,0,0,1,2.266-3.4A12.011,12.011,0,0,1,34.2,17.408a7.641,7.641,0,0,1,2.575-.515,12.346,12.346,0,0,1,3.914.309,4.415,4.415,0,0,1,2.369,1.236A9.008,9.008,0,0,0,43.882,19.469ZM37.5,31.933a4.567,4.567,0,0,0,2.06-.309,5.57,5.57,0,0,0,3.4-6.181,3.514,3.514,0,0,0-1.133-1.854,4.368,4.368,0,0,0-3.708-.927,5.927,5.927,0,0,0-3.3,1.648,5.6,5.6,0,0,0-1.545,4.532,3.225,3.225,0,0,0,1.648,2.575A4.643,4.643,0,0,0,37.5,31.933Z" fill="#0e3983"/>
      <path id="Path_565" data-name="Path 565" d="M115.164,34.714c-.206.1-.309.309-.515.412a10.046,10.046,0,0,1-9.683,1.648,6.474,6.474,0,0,1-3.5-2.884,9.4,9.4,0,0,1-1.339-4.944,12.3,12.3,0,0,1,2.575-7.52,10.751,10.751,0,0,1,6.8-4.12,10.615,10.615,0,0,1,5.665.515,3.689,3.689,0,0,1,1.957,1.545l.206.206a6.563,6.563,0,0,1,.206-.721.929.929,0,0,1,.1-.515.874.874,0,0,1,.824-.721H123.4c.618,0,.927.515.927,1.133-.309,1.751-.618,3.605-.824,5.356-.309,1.751-.515,3.5-.824,5.253-.206,1.545-.515,3.09-.721,4.635-.1.618-.206,1.133-.309,1.751a1.432,1.432,0,0,1-1.442,1.133h-4.326c-.721,0-1.133-.412-.927-1.133,0-.309.1-.515.1-.824A.319.319,0,0,0,115.164,34.714Zm-4.017-2.781a5.487,5.487,0,0,0,4.635-2.369,4.91,4.91,0,0,0,.927-3.3,3.9,3.9,0,0,0-1.957-3.3,4.964,4.964,0,0,0-3.193-.412,5.22,5.22,0,0,0-3.09,1.751,5.553,5.553,0,0,0-1.339,4.12,3.564,3.564,0,0,0,1.545,2.884A3.454,3.454,0,0,0,111.146,31.933Z" fill="#019cd9"/>
      <path id="Path_566" data-name="Path 566" d="M63.247,28.121c.206-.1.206-.206.309-.309C64.9,25.855,66.132,24,67.471,22.044l2.472-3.708a1.816,1.816,0,0,1,1.545-.824h4.635c.618,0,.927.206,1.03.721a.8.8,0,0,1-.206.824c-.927,1.339-1.854,2.781-2.884,4.12-1.339,1.957-2.678,3.811-4.017,5.768-1.648,2.369-3.3,4.738-4.841,7.108-1.133,1.751-2.369,3.4-3.5,5.15-.412.618-.824,1.133-1.236,1.751a1.208,1.208,0,0,1-1.133.515H54.389c-.412,0-.721-.1-.824-.412a.948.948,0,0,1,.1-1.03,20.888,20.888,0,0,1,1.339-1.854c1.133-1.648,2.369-3.3,3.605-5.047a.806.806,0,0,0,.1-.824c-.824-2.472-1.751-5.047-2.575-7.52-.824-2.266-1.545-4.532-2.369-6.9-.1-.309-.206-.721-.309-1.03a.991.991,0,0,1,.927-1.442h4.532a1.425,1.425,0,0,1,1.648,1.236l1.236,4.017c.515,1.648,1.03,3.4,1.545,5.047A.779.779,0,0,0,63.247,28.121Z" fill="#0e3983"/>
      <path id="Path_567" data-name="Path 567" d="M128.246,36.877h-2.163c-.721,0-1.03-.412-.927-1.133.309-2.369.721-4.635,1.133-7s.721-4.841,1.133-7.211c.412-2.575.824-5.253,1.236-7.829.206-1.545.515-3.09.721-4.635.1-.824.412-1.03,1.236-1.03h4.326a.869.869,0,0,1,.721.206,1.135,1.135,0,0,1,.309.927c-.206,1.545-.515,2.987-.721,4.532s-.515,3.09-.721,4.635-.515,3.193-.721,4.738c-.206,1.339-.412,2.575-.618,3.914-.206,1.648-.515,3.193-.721,4.841-.206,1.133-.309,2.266-.515,3.3,0,.206-.1.309-.1.515a1.405,1.405,0,0,1-1.339,1.133,17.46,17.46,0,0,1-2.266.1Z" fill="#019cd9"/>
    </g>
  </g>
</svg>
