<svg xmlns="http://www.w3.org/2000/svg" xmlns:xlink="http://www.w3.org/1999/xlink" width="111" height="42" viewBox="0 0 111 42">
  <defs>
    <clipPath id="clip-path">
      <rect id="Rectangle_163" data-name="Rectangle 163" width="111" height="42" rx="4" transform="translate(527 949)" fill="#989caa"/>
    </clipPath>
  </defs>
  <g id="Mask_Group_11" data-name="Mask Group 11" transform="translate(-527 -949)" clip-path="url(#clip-path)">
    <g id="visa" transform="translate(527 952.113)">
      <path id="Path_571" data-name="Path 571" d="M95.986,39.124c1.267-2.957,2.45-5.829,3.717-8.7,3.126-7.434,6.335-14.783,9.461-22.216,1.014-2.365,2.619-3.548,5.153-3.463,1.943.084,3.97,0,5.913,0,.676,0,.929.084,1.1.845,2.281,10.9,4.646,21.794,6.927,32.691.169.676,0,.845-.676.845-2.281-.084-4.562,0-6.842,0-.591,0-.76-.169-.929-.76-.169-1.183-.507-2.365-.76-3.548-.084-.676-.338-.929-1.1-.929h-9.883a.968.968,0,0,0-1.1.845c-.422,1.267-.929,2.534-1.352,3.717a.653.653,0,0,1-.676.591C102.068,39.124,99.112,39.124,95.986,39.124Zm14.023-12.249h6.42c.76,0,.929-.253.76-.929-.676-3.041-1.267-6.167-1.943-9.208a8.817,8.817,0,0,0-.591-2.365C113.134,18.6,111.614,22.651,110.009,26.875Z" transform="translate(-17.004 -4.01)" fill="#274896"/>
      <path id="Path_572" data-name="Path 572" d="M75.479,39.488a26.462,26.462,0,0,1-8.447-1.436c-.76-.253-1.1-.507-.929-1.436.422-1.858.676-3.8.929-5.744.084-.845.338-.929,1.1-.591a18.633,18.633,0,0,0,8.278,1.943,8.142,8.142,0,0,0,3.97-.76c2.365-1.183,2.534-3.379.507-4.984a21.3,21.3,0,0,0-3.548-2.027,22.724,22.724,0,0,1-3.886-2.365c-5.66-4.224-4.139-10.559-.845-13.854a14.941,14.941,0,0,1,8.616-4.055,23.754,23.754,0,0,1,10.9.76c.76.253,1.014.422.845,1.352-.422,1.858-.676,3.8-.929,5.744-.084.676-.253.676-.845.422a15.12,15.12,0,0,0-9.039-1.183c-.253.084-.591.169-.845.253a2.937,2.937,0,0,0-2.112,2.2c-.169,1.183.676,1.858,1.436,2.45a33.437,33.437,0,0,0,3.8,2.112c1.1.591,2.2,1.183,3.21,1.858a9.317,9.317,0,0,1,1.689,14.107,14.125,14.125,0,0,1-8.194,4.477A14.6,14.6,0,0,1,75.479,39.488Z" transform="translate(-12.124 -3.868)" fill="#274896"/>
      <path id="Path_573" data-name="Path 573" d="M24.9,22.246a49.515,49.515,0,0,1,1.352,5.829c.507-1.352.929-2.45,1.352-3.548,2.365-6.251,4.73-12.587,7.1-18.838a1.105,1.105,0,0,1,1.183-.845c2.619.084,5.237,0,7.94,0,.676,0,.845.084.507.76-4.562,10.982-9.123,21.879-13.6,32.86-.253.507-.507.76-1.1.676-2.619,0-5.237-.084-7.772,0-.845,0-1.1-.253-1.267-1.014-2.534-9.63-5.153-19.175-7.772-28.805.338-.084.591.169.76.253a31.661,31.661,0,0,1,7.772,6.842A59.649,59.649,0,0,1,24.9,22.246Z" transform="translate(-3.442 -4.027)" fill="#274896"/>
      <path id="Path_574" data-name="Path 574" d="M52.921,39.141h-3.8c-.507,0-.76-.084-.676-.676,1.689-9.968,3.379-19.936,4.984-29.9l.507-3.041c.084-.507.253-.676.845-.676h7.687c.591,0,.676.253.591.76-1.858,10.982-3.632,21.879-5.406,32.86-.084.591-.253.76-.845.76C55.455,39.141,54.188,39.141,52.921,39.141Z" transform="translate(-9.249 -4.027)" fill="#274896"/>
      <path id="Path_575" data-name="Path 575" d="M23.071,22.245a48.909,48.909,0,0,0-3.548-5.66,31.662,31.662,0,0,0-7.772-6.842c-.253-.169-.507-.338-.76-.253A18.709,18.709,0,0,0,5.5,6.7c-1.014-.422-2.2-.676-3.21-1.014-.253-.084-.676-.084-.676-.507s.422-.338.676-.338H16.736a3.29,3.29,0,0,1,3.548,2.872c1.014,4.73,2.027,9.377,2.788,14.192Z" transform="translate(-1.615 -4.026)" fill="#f1a628"/>
    </g>
  </g>
</svg>
